<?xml version="1.0" ?><svg data-name="Layer 1" id="Layer_1" viewBox="0 0 64 64" xmlns="http://www.w3.org/2000/svg"><defs><style>.cls-1{fill:#fbd3ca;}.cls-2{fill:#f3cac2;}.cls-3,.cls-8,.cls-9{fill:none;}.cls-3,.cls-4,.cls-8,.cls-9{stroke:#333;stroke-linecap:round;}.cls-3,.cls-4,.cls-8{stroke-linejoin:round;}.cls-3,.cls-4{stroke-width:2px;}.cls-4{fill:#555;}.cls-5{fill:#edc1b9;}.cls-6{fill:#333;}.cls-7{fill:#444;}.cls-9{stroke-miterlimit:10;}</style></defs><title/><g id="Men"><rect class="cls-1" height="16.5" width="16" x="24.04" y="33.74"/><polygon class="cls-2" points="24.04 38.55 35.32 50.62 40.04 50.62 40.04 34.12 24.04 34.12 24.04 38.55"/><path class="cls-1" d="M32,41a8,8,0,0,1-3.4-.5c-3.34-1.77-6.6-5.64-6.6-8v-2a4.73,4.73,0,0,1-2.77-3.65c-.46-2.18-.24-4,1.79-4V19.93c0-5,3.06-10,11-10S43,15.05,43,20v2.92c2,0,2.24,1.71,1.77,3.89A4.73,4.73,0,0,1,42,30.5v2c0,2.32-3.27,6.19-6.61,7.94A8.34,8.34,0,0,1,32,41Z"/><path class="cls-2" d="M43,23V20.08C43,15.08,40,10,32,10a15.38,15.38,0,0,0-2.79.23c-1.36,6.27-2.71,15.12-2.71,20.47,0,1.87.23,5.44.51,8.77a12.71,12.71,0,0,0,1.61,1A8,8,0,0,0,32,41a8.28,8.28,0,0,0,3.38-.5c3.34-1.77,6.62-5.64,6.62-8v-2a4.73,4.73,0,0,0,2.77-3.65C45.27,24.71,45,23,43,23Z"/><line class="cls-3" x1="24.04" x2="24.04" y1="44" y2="36.65"/><line class="cls-3" x1="40.04" x2="40.03" y1="44" y2="36.65"/><path class="cls-4" d="M56.78,53.71c-.31-2.29-2-3.66-4.42-4.64L42,44.79,41,42c-5.18,5.35-13.18,5.32-18,0l-.93,2.8-10.4,4.27c-2.4,1-4.11,2.35-4.42,4.64l-.27,2a62.09,62.09,0,0,0,50,.06h0Z"/><path class="cls-2" d="M40.5,16.64c-3.27.55-3.74.83-8,4.65-4-.59-6.14-.59-8.23-2-.87.75-.77,1.2-.77,2.12v5.3l-1.11-2.08V20.35a5.64,5.64,0,0,1,.94-3.72c1.75-2.3,18.32-1.85,18.32-1.85Z"/><path class="cls-5" d="M28.26,15.19c-.31,1.74-.6,3.55-.85,5.33,1.36.29,3,.44,5.08.76,4.27-3.83,4.74-4.1,8-4.65l1.13-1.85A119.12,119.12,0,0,0,28.26,15.19Z"/><path class="cls-3" d="M32,41a8,8,0,0,1-3.4-.5c-3.34-1.77-6.6-5.64-6.6-8v-2a4.73,4.73,0,0,1-2.77-3.65c-.46-2.18-.24-4,1.79-4V19.93c0-5,3.06-10,11-10S43,15.05,43,20v2.92c2,0,2.24,1.71,1.77,3.89A4.73,4.73,0,0,1,42,30.5v2c0,2.32-3.27,6.19-6.61,7.94A8.34,8.34,0,0,1,32,41Z"/><path class="cls-6" d="M44.22,14.33a3.77,3.77,0,0,0-.75-.69A4.19,4.19,0,0,0,42,13a7.67,7.67,0,0,1,2-5,3.71,3.71,0,0,0-3,2c-1.84-7.22-9-5-13-5-5,0-5-1-5-1s-5.51,4.89-3,10.12c-.82.76-1,1.76-1,3.89a5.3,5.3,0,0,0,.64,2.7A2.39,2.39,0,0,1,20,21.84V23.5A6.09,6.09,0,0,1,23,27V20c0-.92-.1-1.37.77-2.12L32,20.6c4.27-3.83,4.74-4.1,8-4.65-.66.38-.7.66-.71,1s.29.53.6.73A1.88,1.88,0,0,1,41,19.78V27a6.1,6.1,0,0,1,3-3.5V21.8a2.39,2.39,0,0,1,.33-1.07,6,6,0,0,0,.66-3C45,16,44.83,15,44.22,14.33Z"/><path class="cls-7" d="M29.5,8.91A8,8,0,0,1,34.22,7.8,5.59,5.59,0,0,1,38,10a12.19,12.19,0,0,0-3.76-1.22A34.68,34.68,0,0,0,29.5,8.91Z"/><path class="cls-7" d="M25.8,17.57C23.93,16.42,21.8,14,24,11c0,0-2.81,2.35-1.67,5.38S28.82,20,32,20.61C32,20.6,27.71,18.73,25.8,17.57Z"/><path class="cls-6" d="M41,28.31v4c-.63,1.88-1.16,2.11-3,3.34a3,3,0,0,0-2.22-2.73A15.62,15.62,0,0,0,32,32.31a15.46,15.46,0,0,0-3.76.61A3,3,0,0,0,26,35.65c-1.81-1.21-2.38-1.45-3-3.34v-4a6.82,6.82,0,0,0-2,5c0,3,4.81,8.11,7.18,9.3a7,7,0,0,0,3.82.7,7,7,0,0,0,3.82-.7C37.19,41.93,47.23,34.5,41,28.31Zm-6,10c-.48,0-1,.08-1-.4a.6.6,0,0,0-.6-.6h-2.8a.6.6,0,0,0-.6.6c0,.48-.52.4-1,.4a1,1,0,0,1-1-1V35.82a1,1,0,0,1,.75-1A13.76,13.76,0,0,1,32,34.31a13.8,13.8,0,0,1,3.25.54,1,1,0,0,1,.75,1v1.49A1,1,0,0,1,35,38.31Z"/><path class="cls-8" d="M40,47.12a14.46,14.46,0,0,1-16,0"/><circle class="cls-6" cx="27.26" cy="27.24" r="1"/><circle class="cls-6" cx="36.76" cy="27.24" r="1"/><line class="cls-9" x1="30.1" x2="34.1" y1="35.34" y2="35.34"/><path class="cls-9" d="M30.1,32l1.1.3a2.77,2.77,0,0,0,1.8,0l1.1-.3"/></g></svg>