<svg width="18" height="14" viewBox="0 0 18 14" fill="none" xmlns="http://www.w3.org/2000/svg">
<path d="M8.57155 6.28584C5.91278 6.28584 2.14308 9.98502 2.14308 12.3201C2.14308 13.3717 3.04072 14 4.54505 14C6.18029 14 7.26008 13.2443 8.57155 13.2443C9.89441 13.2443 10.9772 14 12.5981 14C14.1024 14 15 13.3717 15 12.3201C15 9.98502 11.2303 6.28584 8.57155 6.28584ZM3.64038 5.90585C3.29217 4.86173 2.21942 4.18553 1.24443 4.39526C0.269449 4.60499 -0.238467 5.62139 0.109742 6.66552C0.457951 7.70964 1.5307 8.38584 2.50569 8.17611C3.48067 7.96638 3.98859 6.94998 3.64038 5.90585ZM6.47694 5.27968C7.51286 5.03439 8.03116 3.77481 7.63474 2.46642C7.23831 1.15803 6.07717 0.29651 5.04125 0.541797C4.00533 0.787083 3.48703 2.04666 3.88346 3.35506C4.27988 4.66345 5.44135 5.52527 6.47694 5.27968ZM15.8983 4.39556C14.9233 4.18584 13.8509 4.86203 13.5024 5.90615C13.1542 6.95028 13.6621 7.96668 14.6371 8.17641C15.6121 8.38614 16.6845 7.70994 17.033 6.66582C17.3812 5.62169 16.8733 4.60529 15.8983 4.39556ZM10.6662 5.27968C11.7021 5.52497 12.8632 4.66345 13.2596 3.35506C13.6561 2.04666 13.1378 0.787384 12.1019 0.541797C11.0659 0.296209 9.90479 1.15803 9.50837 2.46642C9.11194 3.77481 9.63024 5.03439 10.6662 5.27968Z" fill="white"/>
</svg>
