<svg width="20" height="20" viewBox="0 0 20 20" fill="none" xmlns="http://www.w3.org/2000/svg">
<path d="M9.79246 0C9.67333 0 9.5542 0.0953038 9.48272 0.214433L7.24308 4.52693C7.19543 4.64606 7.0763 4.74136 6.93335 4.74136H3.57389C1.59634 4.74136 0 6.3377 0 8.31525V18.8225C0 18.9416 0.0953038 19.0369 0.214433 19.0369H18.8225C18.9416 19.0369 19.0369 18.9416 19.0369 18.8225V4.97962C19.0369 4.83666 18.9416 4.76519 18.8225 4.76519H16.8926C16.7735 4.76519 16.6543 4.66988 16.5829 4.55075L14.3432 0.238259C14.2717 0.11913 14.1764 0.0238259 14.0335 0.0238259H9.72098L9.79246 0ZM3.62154 7.14778C4.28867 7.14778 4.81284 7.67195 4.81284 8.33908C4.81284 9.0062 4.28867 9.53037 3.62154 9.53037C2.95442 9.53037 2.43025 9.0062 2.43025 8.33908C2.43025 7.67195 2.95442 7.14778 3.62154 7.14778ZM11.9606 7.14778C14.5815 7.14778 16.7258 9.29212 16.7258 11.913C16.7258 14.5338 14.5815 16.6782 11.9606 16.6782C9.33977 16.6782 7.19543 14.5338 7.19543 11.913C7.19543 9.29212 9.33977 7.14778 11.9606 7.14778ZM11.9606 9.53037C10.6502 9.53037 9.57803 10.6025 9.57803 11.913C9.57803 13.2234 10.6502 14.2956 11.9606 14.2956C13.271 14.2956 14.3432 13.2234 14.3432 11.913C14.3432 10.6025 13.271 9.53037 11.9606 9.53037Z" fill="black"/>
</svg>
