<svg width="29" height="26" viewBox="0 0 29 26" fill="none" xmlns="http://www.w3.org/2000/svg">
<path d="M14.8481 0.5C11.4502 0.5 8.6958 3.25439 8.6958 6.65234C8.6958 9.39941 12.7168 14.4062 14.2573 16.2236C14.5693 16.5918 15.1274 16.5918 15.439 16.2236C16.9795 14.4062 21.0005 9.39941 21.0005 6.65234C21.0005 3.25439 18.2461 0.5 14.8481 0.5ZM14.8481 8.70312C13.7153 8.70312 12.7974 7.78516 12.7974 6.65234C12.7974 5.51953 13.7153 4.60156 14.8481 4.60156C15.981 4.60156 16.8989 5.51953 16.8989 6.65234C16.8989 7.78516 15.981 8.70312 14.8481 8.70312ZM1.76807 11.0444C1.47811 11.1604 1.22956 11.3606 1.05445 11.6192C0.87934 11.8777 0.785714 12.1828 0.785645 12.4951L0.785645 24.7178C0.785645 25.2705 1.34375 25.6484 1.85693 25.4434L8.59814 22.375V10.9941C8.1665 10.2139 7.81348 9.4541 7.56055 8.72754L1.76807 11.0444ZM14.8481 18.062C14.1611 18.062 13.5112 17.7603 13.0654 17.2339C12.1055 16.1011 11.0845 14.811 10.1606 13.4878V22.3745L19.5356 25.4995V13.4883C18.6118 14.811 17.5913 16.1016 16.6309 17.2344C16.1851 17.7603 15.5352 18.062 14.8481 18.062ZM27.8394 8.36914L21.0981 11.4375V25.5L27.9282 22.7681C28.2182 22.6521 28.4668 22.452 28.6419 22.1934C28.817 21.9348 28.9106 21.6297 28.9106 21.3174V9.09473C28.9106 8.54199 28.3525 8.16406 27.8394 8.36914Z" fill="#59AB8A"/>
</svg>
